<svg xmlns="http://www.w3.org/2000/svg" xmlns:xlink="http://www.w3.org/1999/xlink" width="160" height="160" viewBox="0 0 160 160"><defs><style>.cls-1{fill:none;}.cls-2{isolation:isolate;}.cls-3,.cls-9{opacity:0.5;}.cls-4{fill:#adc9b1;}.cls-5{fill:#9ec6a3;}.cls-6{clip-path:url(#clip-path);}.cls-7{fill:#fff;}.cls-8{fill:#f4f1ef;}.cls-12,.cls-9{fill:#51504f;}.cls-13,.cls-9{mix-blend-mode:overlay;}.cls-10{fill:#333332;}.cls-11{opacity:0.1;}.cls-13{opacity:0.24;}.cls-14{fill:#3c3f44;}</style><clipPath id="clip-path"><circle class="cls-1" cx="80" cy="80" r="73.27"/></clipPath></defs><title>Map politic SVG</title><g class="cls-2"><g id="Objects"><g class="cls-3"><path class="cls-4" d="M80,5A75,75,0,1,1,5,80,75.08,75.08,0,0,1,80,5m0-5a80,80,0,1,0,80,80A80,80,0,0,0,80,0Z"/></g><circle class="cls-5" cx="80" cy="80" r="73.27"/><circle class="cls-1" cx="80" cy="80" r="73.27"/><circle class="cls-1" cx="80" cy="80" r="73.27"/><g class="cls-6"><path class="cls-7" d="M58.88,62.84c1.1,5.45-.7,10.71-4,11.75s-6.9-2.55-8-8,.7-10.72,4-11.76S57.79,57.38,58.88,62.84Z"/><path class="cls-8" d="M100.61,62.84c-1.09,5.45.71,10.71,4,11.75s6.89-2.55,8-8-.71-10.72-4-11.76S101.71,57.38,100.61,62.84Z"/><path class="cls-9" d="M123.27,123.23a14.27,14.27,0,0,0-5.93-3.22l-13.81-3.69h0c-.54-.15-1.06-.32-1.58-.52l-.37-.15c-.43-.18-.86-.37-1.27-.57l-.16-.08.53-.8-8-7.06a16.56,16.56,0,0,1-1.49-6l-.26-4.44c5.86-4.89,11.22-13,14.54-22,3.06.27,6.16-3.15,7.17-8.15s-.49-10-3.4-11.5h0s2.61-13-4.37-22.61C98.5,23.75,88.49,17.56,79.57,19V156h44.62l3.61-19.35a15.31,15.31,0,0,0,.25-2.76A14.43,14.43,0,0,0,123.27,123.23Z"/><path class="cls-8" d="M103.53,116.32a16.68,16.68,0,0,1-12.35-15.17L89.83,77.34H67.69l-1.41,24.81a16.68,16.68,0,0,1-12.55,15.22l-10.87,2.76a14.42,14.42,0,0,0-10.63,16.63L35.81,156h88.38l3.61-19.35A14.41,14.41,0,0,0,117.34,120Z"/><path class="cls-7" d="M108.9,57c0,20.27-15.63,44.51-28.9,44.51S51.1,77.24,51.1,57,64,24.6,80,24.6,108.9,36.69,108.9,57Z"/><path class="cls-10" d="M70.87,23.52c-5.31.66-13,1.08-18,11.63C47.61,46.23,50,55.26,50,55.26c5.89-.43,6.73,9.45,6.73,9.45l1.63-2.86c.65-5.05,1.05-14.63,4.76-16.8,4.37-.43,23.4,6.94,28.67-5,12.92.07,9.82,19.22,9.7,21.53l1.73,3.11s1.7-9.64,6-9.62c0,0,2.61-13-4.37-22.61C96.3,20.73,81.13,13.56,70.87,23.52Z"/><path class="cls-7" d="M117.34,120l-13.81-3.69a16.69,16.69,0,0,1-3.39-1.32l.53-.8-8-7.06-13.1,13.1-14-14L58,114.13l.76,1.05a16.59,16.59,0,0,1-5,2.19l-10.87,2.76a14.42,14.42,0,0,0-10.63,16.63L35.81,156h88.38l3.61-19.35A14.41,14.41,0,0,0,117.34,120Z"/><polygon class="cls-11" points="60.13 118.38 71.33 134.67 79.57 120.24 71.33 137.94 60.13 118.38"/><polygon class="cls-11" points="98.7 118.38 87.81 133.93 79.57 120.24 87.81 137.94 98.7 118.38"/><path class="cls-12" d="M58.72,115.18a16.59,16.59,0,0,1-5,2.19l-10.87,2.76a14.42,14.42,0,0,0-10.63,16.63L35.81,156h40.8Z"/><path class="cls-12" d="M117.34,120l-13.81-3.69a16.69,16.69,0,0,1-3.39-1.32L82.73,156h41.46l3.61-19.35A14.41,14.41,0,0,0,117.34,120Z"/><polygon class="cls-13" points="47.54 124.33 58.34 147.51 64.25 146.35 60.64 153.27 61.65 155.95 63.96 155.95 63.09 153.27 66.78 144.47 59.2 145.78 47.54 124.33"/><polygon class="cls-13" points="111 124.33 100.2 147.51 94.29 146.35 97.9 153.27 96.89 155.95 94.58 155.95 95.45 153.27 91.76 144.47 99.33 145.78 111 124.33"/><polygon class="cls-14" points="79.57 120.24 74.02 129.98 79.57 136.85 85.52 130.12 79.57 120.24"/><polygon class="cls-14" points="79.57 128.91 74.02 142.12 76.61 155.95 82.73 155.95 85.52 142.26 79.57 128.91"/></g></g></g></svg>